<svg width="29" height="27" viewBox="0 0 29 27" fill="none" xmlns="http://www.w3.org/2000/svg">
<path d="M27.25 12.3629C27.255 14.1273 26.8053 15.8678 25.9375 17.4427C24.9085 19.3299 23.3267 20.9173 21.3692 22.027C19.4117 23.1367 17.1558 23.7249 14.8542 23.7257C12.9294 23.7303 11.0306 23.3181 9.3125 22.5226L1 25.0625L3.77083 17.4427C2.90302 15.8678 2.45331 14.1273 2.45833 12.3629C2.45922 10.2531 3.10089 8.18516 4.31146 6.39076C5.52204 4.59637 7.2537 3.14637 9.3125 2.20316C11.0306 1.40767 12.9294 0.995438 14.8542 1.00004H15.5833C18.623 1.15376 21.494 2.32984 23.6467 4.30309C25.7993 6.27634 27.0823 8.9081 27.25 11.6945V12.3629Z" stroke="#838383" stroke-width="2" stroke-linecap="round" stroke-linejoin="round"/>
</svg>
